<?xml version="1.0" encoding="utf-8"?>
<!-- Generator: Adobe Illustrator 16.0.0, SVG Export Plug-In . SVG Version: 6.00 Build 0)  -->
<!DOCTYPE svg PUBLIC "-//W3C//DTD SVG 1.1//EN" "http://www.w3.org/Graphics/SVG/1.1/DTD/svg11.dtd">
<svg version="1.1" id="圖層_1" xmlns="http://www.w3.org/2000/svg" xmlns:xlink="http://www.w3.org/1999/xlink" x="0px" y="0px"
	 width="260.79px" height="158.74px" viewBox="0 0 260.79 158.74" enable-background="new 0 0 260.79 158.74" xml:space="preserve">
<polyline fill="#63A70A" points="6.51,75.464 6.51,72.046 258.79,72.046 "/>
<path fill="#9F8D5B" d="M104.243,68.265l-1.273,3.418l-2.674-3.404l-2.631,0.006l-0.746,2.07c-0.379-0.908-1.383-1.625-2.951-2.027
	c-1.566-0.402-3.76-0.209-5.355,0.391c-1.596,0.602-2.625,1.918-2.842,2.828s0.035,1.754,0.035,1.754l-1.283,0.004l2.676-6.586
	l-4.262,0.014l-1.213,3.041c0,0-0.316-1.41-3.824-1.398c-2.412,0.006-7.396,0.021-7.396,0.021l0.467-1.756l-11.59,0.033
	l-1.959,5.205l-2.736-3.438c0,0-7.361,0.023-7.707,0.023c-0.344,0-0.5,0.125-0.5,0.125l0.031-0.094l-2.852,0.01l-1.061,1.131
	l-0.434,1.16l-2.977,0.01l0.246-0.66l-0.598-1.658l-1.598,0.004l0.621-1.348c0,0-2.568,0.008-6.641,0.018
	c-4.918,0.016-7.67,1.465-8.512,3.098c0,0-0.496,1.129-0.932,1.943c-0.438,0.816,0.1,1.848,0.664,2.316
	c0.564,0.467,1.979,1.561,4.953,1.551c2.977-0.008,8.959-0.025,8.959-0.025l1.406-1.383l0.404-1.16l3.008-0.008l-0.281,0.752
	l1.041,1.814l9.898-0.029l1.344-1.256l0.869-2.289l2.705,3.529l1.658-0.004l1.219-1.131l-0.373,1.129l2.82-0.01l1.916-1.264
	c0,0,0.34,1.26,1.561,1.256c1.223-0.004,7.018-0.02,7.018-0.02l1.344-1.291l0.434-1.189l1.131-0.006c0,0,0.719-0.094,0.906,0.281
	c0.5,0.988,1.512,2.188,3.609,2.182s7.678-0.021,7.678-0.021l0.844-0.381c0,0,0.816,0.344,2.195,0.34
	c1.379-0.002,7.576-0.023,7.576-0.023l1.369-3.541l2.674,3.563l1.756-0.008l1.311-1.412l2.238-6.207L104.243,68.265z M34.838,73.214
	c0,0-2.707,0.008-5.586,0.018c-2.879,0.008-3.174-0.457-3.174-0.457s0.367-1.27,1.311-1.861c0.809-0.506,2.24-0.838,3.447-0.844
	c1.207-0.002,4.086-0.012,4.086-0.012l1.25-0.516L34.838,73.214z M93.846,71.744c-0.154,0.434-0.529,1.035-1.791,1.396
	c-1.314,0.375-3.004-0.146-3.051-0.533c-0.039-0.316,0.029-1.006,1.125-1.471c1.098-0.469,2.336-0.443,2.893-0.258
	C93.581,71.064,93.999,71.31,93.846,71.744z"/>
<g>
	<path fill="#FFFFFF" d="M59.553,69.046l-1.416,3.664c-0.178,0.504-0.881,0.689-1.055,0.434c-0.297-0.434-0.699-0.973-1.207-1.613
		l-1.67-2.094l-1.395,0.004l-1.844,4.941L46,74.402l0.729-1.912l3.268-0.012l0.238-0.639l-2.922,0.01l-0.375,0.002l0.654-1.75
		l3.717-0.014l0.234-0.646c0,0-3.646,0.012-4.439,0.016c-0.797,0.002-0.961,0.471-0.961,0.471l-1.633,4.41
		c0,0-0.068,0.189,0.039,0.391l-1.451,0.004l0.205-0.533l1.758-4.725l-0.941,0.004l-0.643,0.67l-0.615,1.662l-4.867,0.018h-0.238
		l0.627-1.682l-0.246-0.645l-0.881,0.002l-1.709,4.713c-1.432,0.006-4.871,0.021-6.471,0.029c-0.99,0.002-2.516-0.055-3.111-0.379
		c0,0-1.131-0.482-0.936-1.172c0.246-0.871,0.736-1.805,1.527-2.439c0.918-0.74,3.043-1.201,3.99-1.188
		c0.133,0.002,0.563-0.008,0.563-0.008l3.602-0.018l1.484-0.613l0.121-0.264l-5.615,0.023c0,0-1.143,0.039-1.402,0.07
		c0,0-2.172,0.102-3.994,1.004c-1.717,0.854-1.896,1.926-2.582,3.258c-0.467,0.908,0.848,1.586,1.326,1.83
		c1.348,0.684,3.836,0.715,3.836,0.715l8.074-0.02l0.914-0.906l0.635-1.678l5.115-0.018l-0.641,1.713l0.516,0.928l2.047-0.006
		l0.213-0.145c0.09,0.059,0.201,0.107,0.361,0.145l5.801-0.023l0.518-0.004l0.9-0.85l0.951-2.574c0.199-0.529,1.08-0.398,1.514,0.17
		l2.453,3.229l0.758-0.002l0.898-0.854l1.943-5.129L59.553,69.046z"/>
	<polygon fill="#FFFFFF" points="69.372,68.587 69.663,67.652 60.061,67.693 59.694,68.615 62.991,68.603 60.661,75.009 
		61.776,75.003 63.317,73.945 65.309,68.595 	"/>
	<path fill="#FFFFFF" d="M104.934,69.251l-1.223,3.295c-0.18,0.504-0.881,0.686-1.055,0.434c-0.295-0.434-0.697-0.977-1.209-1.615
		l-1.668-2.094l-1.395,0.004l-1.871,5.027l-2.576,0.01c0.402-0.166,0.803-0.361,1.02-0.539c0.369-0.295,0.375-0.301,0.674-0.65
		c0.393-0.465,0.588-0.969,0.584-1.514c-0.002-0.764-0.398-1.371-1.184-1.822c-0.787-0.451-1.807-0.67-3.057-0.668
		c-1.475,0.006-2.725,0.316-3.756,0.938s-1.547,1.43-1.541,2.422c0.002,0.434,0.174,0.842,0.514,1.223
		c0.199,0.221,0.455,0.41,0.762,0.572l-4.881,0.02l2.656-6.6l-2.139-0.012l-2.572,6.578c-0.711,0.029-2.201-0.055-2.605-1.326
		c-0.092-0.275-0.162-0.342-0.521-0.488c1.189-0.094,1.74-0.289,2.275-0.594c0.537-0.303,0.803-0.684,0.803-1.139
		c-0.002-0.326-0.125-0.598-0.373-0.813c-0.246-0.211-0.584-0.357-1.01-0.43c-0.432-0.078-1.059-0.117-1.885-0.113l-4.211,0.016
		l-1.846,4.961l-5.203,0.021l0.727-1.953l3.27-0.012l0.238-0.633l-3.295,0.01l0.652-1.752l3.717-0.014l0.193-0.623
		c0,0-3.611,0.016-4.406,0.02s-0.953,0.447-0.953,0.447l-1.633,4.404c0,0-0.209,0.563,0.611,0.744l5.842-0.016v0.004l0.75-0.004
		l0.898-0.857l0.609-1.631l0.227-0.607l0.707-1.9l3.27-0.012c0.512-0.002,0.877,0.021,1.09,0.063
		c0.217,0.043,0.389,0.125,0.525,0.246c0.133,0.119,0.201,0.264,0.201,0.426c0,0.193-0.088,0.377-0.266,0.547
		c-0.18,0.168-0.428,0.301-0.754,0.408c-0.326,0.098-0.742,0.162-1.25,0.197c-0.258,0.008-0.814,0.016-1.672,0.02l-2.078,0.613
		l1.559-0.006c0.135,0,0.379,0.004,0.379,0.004s0.605,0.037,0.779,0.08c0.236,0.061,0.465,0.186,0.689,0.377
		c0.336,0.273,0.281,1.711,2.684,2.01l1.182-0.006l6.547-0.025l0.91-0.449c0.1,0.039,0.197,0.08,0.305,0.113
		c0.563,0.182,1.18,0.279,1.846,0.303l0.039,0.014l5.939-0.02l1.082-0.004l1.262-3.418c0.197-0.529,1.08-0.402,1.514,0.168
		l2.453,3.23l0.854-0.004l0.822-0.898l1.73-4.713L104.934,69.251z M92.458,74.07c-0.469,0.135-0.961,0.205-1.482,0.205
		c-0.531,0.006-1.041-0.07-1.527-0.223c-0.486-0.154-0.85-0.367-1.094-0.639c-0.248-0.275-0.367-0.574-0.371-0.906
		c-0.002-0.838,0.398-1.508,1.199-2.006c0.801-0.502,1.729-0.756,2.781-0.762c0.826-0.004,1.52,0.16,2.084,0.49
		c0.559,0.326,0.838,0.77,0.84,1.322c0.004,0.344-0.102,0.693-0.314,1.049c-0.211,0.354-0.502,0.654-0.865,0.896
		C93.338,73.74,92.92,73.931,92.458,74.07z"/>
</g>
<text transform="matrix(0.9667 0 1.000000e-004 1 126.4883 71.2686)"><tspan x="0" y="0" fill="#070001" stroke="#070001" stroke-width="0.25" font-family="'ArabicTypesetting'" font-size="6.457" letter-spacing="3.103">CHENTERLON(XIAMEN)INC</tspan><tspan x="129.849" y="0" fill="#070001" stroke="#070001" stroke-width="0.25" font-family="'Aharoni-Bold'" font-size="6.457" letter-spacing="3.103">.</tspan></text>
</svg>
