<svg version="1.2" baseProfile="tiny-ps" xmlns="http://www.w3.org/2000/svg" viewBox="0 0 253 15" width="253" height="15">
	<title>logo_long-svg</title>
	<style>
		tspan { white-space:pre }
		.s0 { fill: #63a70a } 
		.s1 { fill: #9f8d5b } 
		.s2 { fill: #ffffff } 
		.t3 { font-size: 6px;fill: #070001;font-family: "' Arabic Typesetting'" } 
		.t4 { font-size: 6px;fill: #070001;font-weight: bold;font-family: "' Aharoni" } 
	</style>
	<path id="Layer" class="s0" d="m2.51 11.46v-3.42h252.28" />
	<path id="Layer" fill-rule="evenodd" class="s1" d="m103.63 4.26l-2.24 6.21l-1.31 1.41l-1.76 0.01l-2.67-3.56l-1.37 3.54c0 0-6.2 0.02-7.58 0.02c-1.38 0-2.19-0.34-2.19-0.34l-0.84 0.38c0 0-5.58 0.02-7.68 0.02c-2.1 0.01-3.11-1.19-3.61-2.18c-0.19-0.38-0.91-0.28-0.91-0.28l-1.13 0.01l-0.43 1.19l-1.34 1.29c0 0-5.8 0.02-7.02 0.02c-1.22 0-1.56-1.26-1.56-1.26l-1.92 1.26l-2.82 0.01l0.37-1.13l-1.22 1.13l-1.66 0l-2.7-3.53l-0.87 2.29l-1.34 1.26l-9.9 0.03l-1.04-1.81l0.28-0.75l-3.01 0.01l-0.4 1.16l-1.41 1.38c0 0-5.98 0.02-8.96 0.03c-2.97 0.01-4.39-1.08-4.95-1.55c-0.56-0.47-1.1-1.5-0.66-2.32c0.44-0.81 0.93-1.94 0.93-1.94c0.84-1.63 3.59-3.08 8.51-3.1c4.07-0.01 6.64-0.02 6.64-0.02l-0.62 1.35l1.6 0l0.6 1.66l-0.25 0.66l2.98-0.01l0.43-1.16l1.06-1.13l2.85-0.01l-0.03 0.09c0 0 0.16-0.13 0.5-0.13c0.35 0 7.71-0.02 7.71-0.02l2.74 3.44l1.96-5.2l11.59-0.03l-0.47 1.76c0 0 4.98-0.02 7.4-0.02c3.51-0.01 3.82 1.4 3.82 1.4l1.21-3.04l4.26-0.01l-2.68 6.59l1.28 0c0 0-0.25-0.84-0.03-1.75c0.22-0.91 1.25-2.23 2.84-2.83c1.59-0.6 3.79-0.79 5.36-0.39c1.57 0.4 2.57 1.12 2.95 2.03l0.75-2.07l2.63-0.01l2.67 3.4l1.27-3.42l3.38-0.01zm-71.45 1.28l-1.25 0.52c0 0-2.88 0.01-4.09 0.01c-1.21 0.01-2.64 0.34-3.45 0.84c-0.94 0.59-1.31 1.86-1.31 1.86c0 0 0.29 0.46 3.17 0.46c2.88-0.01 5.59-0.02 5.59-0.02l1.33-3.67zm56.85 1.34c-0.56-0.19-1.8-0.21-2.89 0.26c-1.1 0.47-1.16 1.16-1.13 1.47c0.05 0.39 1.74 0.91 3.05 0.53c1.26-0.36 1.64-0.96 1.79-1.4c0.15-0.43-0.27-0.68-0.82-0.87z" />
	<g id="Layer">
		<path id="Layer" class="s2" d="m56.86 5.04l-1.94 5.13l-0.9 0.85l-0.76 0l-2.45-3.23c-0.43-0.57-1.32-0.7-1.51-0.17l-0.95 2.57l-0.9 0.85l-0.52 0l-5.8 0.02c-0.16-0.04-0.27-0.09-0.36-0.14l-0.21 0.14l-2.05 0.01l-0.52-0.93l0.64-1.71l-5.12 0.02l-0.63 1.68l-0.91 0.91l-8.07 0.02c0 0-2.49-0.03-3.84-0.72c-0.48-0.24-1.79-0.92-1.33-1.83c0.69-1.33 0.87-2.4 2.58-3.26c1.82-0.9 3.99-1 3.99-1c0.26-0.03 1.4-0.07 1.4-0.07l5.62-0.02l-0.12 0.26l-1.48 0.61l-3.6 0.02c0 0-0.43 0.01-0.56 0.01c-0.95-0.01-3.07 0.45-3.99 1.19c-0.79 0.63-1.28 1.57-1.53 2.44c-0.2 0.69 0.94 1.17 0.94 1.17c0.59 0.32 2.12 0.38 3.11 0.38c1.6-0.01 5.04-0.02 6.47-0.03l1.71-4.71l0.88 0l0.25 0.64l-0.63 1.68h0.24l4.87-0.02l0.62-1.66l0.64-0.67l0.94 0l-1.76 4.72l-0.2 0.53l1.45 0c-0.11-0.2-0.04-0.39-0.04-0.39l1.63-4.41c0 0 0.16-0.47 0.96-0.47c0.79 0 4.44-0.02 4.44-0.02l-0.23 0.65l-3.72 0.01l-0.65 1.75l0.38 0l2.92-0.01l-0.24 0.64l-3.27 0.01l-0.73 1.91l4.97-0.02l1.84-4.94l1.4 0l1.67 2.09c0.51 0.64 0.91 1.18 1.21 1.61c0.17 0.25 0.88 0.07 1.05-0.43l1.42-3.66l1.3 0z" />
		<path id="Layer" class="s2" d="m61.31 4.59l-1.99 5.35l-1.54 1.06l-1.12 0.01l2.33-6.41l-3.3 0.01l0.37-0.92l9.6-0.04l-0.29 0.94l-4.06 0.01z" />
		<path id="Layer" fill-rule="evenodd" class="s2" d="m102.24 5.25l-1.73 4.71l-0.82 0.9l-0.85 0l-2.45-3.23c-0.43-0.57-1.32-0.7-1.51-0.17l-1.26 3.42l-1.08 0l-5.94 0.02l-0.04-0.01c-0.67-0.02-1.28-0.12-1.85-0.3c-0.11-0.03-0.21-0.07-0.31-0.11l-0.91 0.45l-6.55 0.03l-1.18 0.01c-2.4-0.3-2.35-1.74-2.68-2.01c-0.22-0.19-0.45-0.32-0.69-0.38c-0.17-0.04-0.78-0.08-0.78-0.08c0 0-0.24 0-0.38 0l-1.56 0.01l2.08-0.61c0.86 0 1.41-0.01 1.67-0.02c0.51-0.03 0.92-0.1 1.25-0.2c0.33-0.11 0.57-0.24 0.75-0.41c0.18-0.17 0.27-0.35 0.27-0.55c0-0.16-0.07-0.31-0.2-0.43c-0.14-0.12-0.31-0.2-0.53-0.25c-0.21-0.04-0.58-0.06-1.09-0.06l-3.27 0.01l-0.71 1.9l-0.23 0.61l-0.61 1.63l-0.9 0.86l-0.75 0v0l-5.84 0.02c-0.82-0.18-0.61-0.74-0.61-0.74l1.63-4.4c0 0 0.16-0.44 0.95-0.45c0.8 0 4.41-0.02 4.41-0.02l-0.19 0.62l-3.72 0.01l-0.65 1.75l3.3-0.01l-0.24 0.63l-3.27 0.01l-0.73 1.95l5.2-0.02l1.85-4.96l4.21-0.02c0.83 0 1.45 0.03 1.89 0.11c0.43 0.07 0.76 0.22 1.01 0.43c0.25 0.22 0.37 0.49 0.37 0.81c0 0.45-0.27 0.84-0.8 1.14c-0.54 0.3-1.09 0.5-2.28 0.59c0.36 0.15 0.43 0.21 0.52 0.49c0.4 1.27 1.89 1.35 2.61 1.33l2.57-6.58l2.14 0.01l-2.66 6.6l4.88-0.02c-0.31-0.16-0.56-0.35-0.76-0.57c-0.34-0.38-0.51-0.79-0.51-1.22c-0.01-0.99 0.51-1.8 1.54-2.42c1.03-0.62 2.28-0.93 3.76-0.94c1.25 0 2.27 0.22 3.06 0.67c0.79 0.45 1.18 1.06 1.18 1.82c0 0.55-0.19 1.05-0.58 1.51c-0.3 0.35-0.31 0.36-0.67 0.65c-0.22 0.18-0.62 0.37-1.02 0.54l2.58-0.01l1.87-5.03l1.39 0l1.67 2.09c0.51 0.64 0.91 1.18 1.21 1.61c0.17 0.25 0.88 0.07 1.06-0.43l1.22-3.3l1.3 0zm-12.53 4.25c0.36-0.24 0.65-0.54 0.86-0.9c0.21-0.36 0.32-0.71 0.31-1.05c0-0.55-0.28-1-0.84-1.32c-0.56-0.33-1.26-0.49-2.08-0.49c-1.05 0.01-1.98 0.26-2.78 0.76c-0.8 0.5-1.2 1.17-1.2 2.01c0 0.33 0.12 0.63 0.37 0.91c0.24 0.27 0.61 0.48 1.09 0.64c0.49 0.15 1 0.23 1.53 0.22c0.52 0 1.01-0.07 1.48-0.2c0.46-0.14 0.88-0.33 1.25-0.57z" />
	</g>
	<g id="Layer">
		<text id="CHENTERLON(XIAMEN)INC" style="transform: matrix(.967,0,0,1,126.488,71.269);paint-order:stroke fill markers;stroke: #070001;stroke-width: 0;stroke-linejoin: round;" >
			<tspan x="0" y="0" class="t3">CHENTERLON(XIAMEN)INC
</tspan>
		</text>
		<text id="." style="transform: matrix(.967,0,0,1,252.013,71.269);paint-order:stroke fill markers;stroke: #070001;stroke-width: 0;stroke-linejoin: round;" >
			<tspan x="0" y="0" class="t4">.
</tspan>
		</text>
	</g>
</svg>