<svg version="1.2" xmlns="http://www.w3.org/2000/svg" viewBox="0 0 155 155" width="155" height="155">
	<title>logo-cutted-svg</title>
	<style>
		.s0 { fill: #8fc31f } 
		.s1 { fill: #ffffff } 
		.s2 { fill: #9d9d9e } 
	</style>
	<g id="Layer">
		<path id="Layer" class="s0" d="m97.4 151.3h-69.5c-14.6 0-26.4-11.7-26.7-26.2q-0.1-0.2-0.1-0.4c0-1.5 0-81.8 0-93.8c0-0.1 0.1-0.2 0.1-0.3c0.3-14.4 11.9-26 26.4-26.2h93v35.4h-7.1h-15.6v-19.9c0-3.9-3.2-7-7.1-7h-13.9c-3.8 0-7 3.1-7 7v19.9v1v58.3v13.7c0 6.1 0.4 12.6 1.5 18.2c2.6 12.4 13.3 19 26 20.3z" />
		<path id="Layer" class="s0" d="m120.6 93.3v6v42.8h-1.7c-16.7 0-21-3.8-21-24.4q0-1 0-1.9q0-0.9 0-1.8v-62.9h22.7v42.2z" />
		<path id="Layer" class="s1" d="m97.9 115.8q0 0.9 0 1.9c0 20.6 4.3 24.4 21 24.4h1.7v7.9v1.5h-21c-0.7 0-1.4-0.1-2.2-0.2c-12.7-1.2-23.4-7.9-26-20.3c-1.1-5.6-1.5-12.1-1.5-18.2v-13.7v-58.3v-1v-19.9c0-3.9 3.1-7 7-7h13.9c3.9 0 7 3.2 7 7v19.9h15.7h7v11.2h-22.6v63q0 0.9 0 1.8z" />
		<path id="Layer" class="s2" d="m154.4 142.1v9.4h-18.8h-15v-1.5v-7.9v-42.8v-6v-42.3v-11.2v-35.4h0.8h1.1c0 0 0 0.1 0 0.1c14.3 0.6 25.7 12.2 25.7 26.7v62.8v13.7c0 6.1 0 15.9 0 22.9c0 8.5 0.8 11.5 6.2 11.5z" />
	</g>
	<g id="Layer">
		<path id="Layer" class="s2" d="m-30.3 195.1q1.3 3 1.3 6.6v26.8c0 1.7-1.4 3.1-3.1 3.1h-3.8c-1.6 0-3.1-1.3-3.1-3.1v-26q0.1-1.5-0.4-2.8q-0.4-0.9-1.3-1.6c-0.2-0.2-0.5-0.3-0.8-0.5q-0.2-0.1-0.4-0.2q-0.2 0-0.4-0.1q-0.9-0.4-1.8-0.4q-1.2-0.1-2.7-0.2h-12v31.9c0 1.7-1.4 3.1-3.1 3.1h-4c-1.7 0-3.1-1.4-3.1-3.1v-58.6c0-1.7 1.4-3.1 3.1-3.1h3.9c1.7 0 3.1 1.4 3.1 3.1v16.6h12q2.4 0 4.3 0.2q2.2 0.3 4.3 1.2c0.4 0.1 1 0.4 1.7 0.7q0.9 0.6 1.8 1.3c2 1.3 3.6 3.1 4.5 5.1z" />
		<path id="Layer" class="s2" d="m16 190v3.7c0 1.7-1.3 3.1-3.1 3.1h-13q-1.7 0-3.2 0.2q-1.2 0.1-2.3 0.5c-0.5 0.2-0.8 0.4-1.2 0.6q-0.5 0.3-1.1 0.6q0 0-0.1 0.1h20.7c1.7 0 3.1 1.4 3.1 3.1v4c0 1.7-1.4 3.1-3.1 3.1h-26.4q0 0.1 0 0.3v0.4c0 3.6 1.2 6.5 3.7 8.8c2.5 2.4 6.2 3.6 10.8 3.6h12c0.8 0 1.6 0.3 2.2 0.9c0.6 0.6 0.9 1.4 0.9 2.2l-0.1 3.5c0 1.7-1.4 3-3.1 3h-12.3c-7.6 0-13.6-2.1-17.8-6.4c-4.3-4.2-6.4-9.6-6.4-16c0-6.3 2.3-11.7 6.8-16c4.5-4.2 10.1-6.4 16.7-6.4h13.2c1.8 0 3.1 1.4 3.1 3.1z" />
		<path id="Layer" class="s2" d="m61.8 204.3c0.1 0.1 0.1 0.3 0.1 0.5q0 0.5-0.1 0.9v23c0 1.7-1.4 3.1-3.1 3.1h-3.7c-1.7 0-3.1-1.4-3.1-3.1v-23c0-2.6-0.9-4.7-2.8-6.5c-1.9-1.8-4.2-2.8-6.8-2.9q-0.1 0-0.2 0q0 0-0.1 0c-2.8 0-5.2 1-7.3 3.1c-2.1 2.2-3.1 4.7-3.1 7.6v21.6c0 1.7-1.4 3.1-3.1 3.1h-3.7c-1.7 0-3.1-1.4-3.1-3.1v-22.8c0-5.7 2.2-10.4 6.6-14.1c4.1-3.5 8.9-5.3 14.2-5.3h0.8q6.2 0.5 11.3 4.8c3.2 2.9 5.5 6 6.6 9.5q0.3 1.1 0.5 2.1q0.1 0.7 0.1 1.5z" />
		<path id="Layer" class="s0" d="m90 190.2v3.9c0 1.7-1.4 3.1-3.1 3.1h-10.2v19.9c0 0.9 0.2 1.9 0.4 2.8c0.2 0.7 0.4 0.9 0.4 0.9c0.2 0.1 0.5 0.5 0.8 0.8q0.1 0.2 0.3 0.3c0.1 0.1 0.4 0.3 0.7 0.4c0.1 0 0.5 0.2 1.5 0.2h5.8c1.7 0 3.1 1.4 3.1 3.1v3.2c0 1.7-1.4 3.1-3.1 3.1h-6.6c-1.6-0.1-2.9-0.3-4-0.6q-1.8-0.5-3.4-1.7c-0.4-0.1-0.8-0.4-1.2-0.8q-0.2-0.1-0.4-0.3q-2.9-2.5-3.7-6.4q-0.7-3.2-0.7-6.7v-45.2c0-1.7 1.4-3.1 3.1-3.1h3.9c1.7 0 3.1 1.4 3.1 3.1v16.9h10.2c1.7 0 3.1 1.4 3.1 3.1z" />
		<path id="Layer" class="s2" d="m133.3 190v3.7c0 1.7-1.4 3.1-3.1 3.1h-13q-1.8 0-3.3 0.2q-1.1 0.1-2.2 0.5c-0.5 0.2-0.9 0.4-1.2 0.6q-0.6 0.3-1.1 0.6q-0.1 0-0.1 0.1h20.7c1.7 0 3.1 1.4 3.1 3.1v4c0 1.7-1.4 3.1-3.1 3.1h-26.4q-0.1 0.1-0.1 0.3v0.4c0 3.6 1.3 6.5 3.8 8.8c2.6 2.4 6.1 3.6 10.8 3.6h12c0.8 0 1.6 0.3 2.2 0.9c0.5 0.6 0.9 1.4 0.8 2.2v3.5c-0.1 1.7-1.4 3-3.1 3h-12.3c-7.6 0-13.6-2.1-17.9-6.4c-4.2-4.2-6.4-9.6-6.4-16c0-6.3 2.3-11.7 6.9-16c4.5-4.2 10.1-6.4 16.6-6.4h13.3c1.7 0 3.1 1.4 3.1 3.1z" />
		<path id="Layer" class="s2" d="m165.2 189.8v3.5c0 1.7-1.4 3-3.1 3h-4.7q-1.4 0-2.4 0.4q-0.7 0.2-1.4 0.8c-1 0.8-1.5 1.5-1.8 2.3q-0.5 1.4-0.5 3.3v25.5c0 0.9-0.4 1.7-1 2.2c-0.5 0.6-1.3 0.9-2.1 0.9l-3.6-0.1c-1.6 0-3-1.4-3-3v-27.4q0-3.3 1.4-6q1.2-2.4 2.9-4.2q2-2.1 5-3.2c1.9-0.7 3.9-1.1 6.1-1.1h5.1c1.7 0 3.1 1.4 3.1 3.1z" />
		<path id="Layer" class="s0" d="m182.4 167.9v63c0 0.5-0.4 0.8-0.8 0.8h-8.4c-0.4 0-0.7-0.3-0.7-0.8v-63c0-0.4 0.3-0.7 0.7-0.7h8.4c0.4 0 0.8 0.3 0.8 0.7z" />
		<path id="Layer" fill-rule="evenodd" class="s2" d="m229 193.3c4.4 4.4 6.6 9.8 6.6 16c0 6.3-2.3 11.7-6.7 16.1c-4.5 4.5-9.9 6.7-16.2 6.7h-0.2c-6.1 0-11.5-2.2-15.9-6.6c-4.5-4.5-6.8-9.9-6.8-16.2c0-6.3 2.3-11.8 6.9-16.3c4.5-4.4 9.8-6.6 15.9-6.6h0.4c6.2 0 11.6 2.4 16 6.9zm-29.2 15.9v0.3c0 3.6 1.3 6.7 3.9 9.3c2.6 2.6 5.6 3.9 9.1 3.9c3.7-0.1 6.6-1.4 9.2-4.1c2.5-2.6 3.7-5.7 3.6-9.3c-0.1-3.6-1.3-6.6-3.8-9.1c-2.6-2.5-5.5-3.7-9.1-3.8c-3.5 0-6.5 1.3-9 3.8c-2.5 2.4-3.8 5.2-4 8.5c0 0.2 0.1 0.4 0.1 0.5z" />
		<path id="Layer" class="s2" d="m280.6 204.8c0 0.3-0.1 0.6-0.1 0.9v23c0 1.7-1.4 3.1-3.1 3.1h-3.7c-1.7 0-3.1-1.4-3.1-3.1v-23c0-2.6-0.9-4.7-2.8-6.5c-1.9-1.9-4.2-2.8-6.9-2.9q0 0-0.1 0q0 0-0.1 0c-2.9 0-5.2 1-7.3 3.1c-2.1 2.2-3.1 4.7-3.1 7.6v21.6c0 1.7-1.4 3.1-3.1 3.1h-3.7c-1.7 0-3.1-1.4-3.1-3.1v-22.8c0-5.7 2.2-10.4 6.6-14.1c4.1-3.5 8.9-5.3 14.2-5.3h0.8c4.2 0.3 7.9 1.9 11.3 4.8c3.2 2.9 5.5 6 6.6 9.5q0.3 1 0.5 2.1q0.1 0.7 0.1 1.5c0.1 0.1 0.1 0.3 0.1 0.5z" />
		<path id="Layer" class="s0" d="m-74.7 170.4v4.9c0 1.7-1.3 3.1-3.1 3.1h-33.6c-1.4 0-2.5 1.1-2.5 2.5l-0.8 0.3h0.8v36.7c0 1.5 1.1 2.7 2.6 2.7h33.5c1.7 0 3.1 1.4 3.1 3.1v4.9c0 1.7-1.3 3.1-3.1 3.1h-33.5c-7.4 0-13.6-6-13.7-13.4l-0.1-37.4c0-0.1 0.1-0.2 0.1-0.3c0.1-7.4 6.1-13.2 13.5-13.3h33.7c1.7 0 3.1 1.4 3.1 3.1z" />
	</g>
</svg>