<svg version="1.2" baseProfile="tiny-ps" xmlns="http://www.w3.org/2000/svg" viewBox="0 0 439 259" width="439" height="259">
	<title>logo-svg</title>
	<style>
		tspan { white-space:pre }
		.s0 { fill: #8fc31f } 
		.s1 { fill: #ffffff } 
		.s2 { fill: #9d9d9e } 
	</style>
	<g id="Layer">
		<path id="Layer" class="s0" d="m238.41 164.29h-69.48c-14.61 0-26.45-11.68-26.75-26.23c-0.02-0.14-0.04-0.25-0.04-0.38c0-1.46 0-81.77 0-93.74c0-0.1 0.02-0.25 0.04-0.38c0.3-14.4 11.95-26 26.37-26.19h93.01v0.03v35.41h-7.05h-15.64v-19.91c0-3.87-3.17-7.02-7.06-7.02h-13.88c-3.86 0-7.04 3.16-7.04 7.02v19.91v1.01v58.25v13.75c0 6.11 0.4 12.56 1.55 18.15c2.54 12.39 13.28 19.06 25.98 20.3z" />
		<path id="Layer" class="s0" d="m261.56 106.29v6.04v42.81h-1.67c-16.65 0-21.02-3.8-21.02-24.48c0-0.61 0-1.23 0-1.84c0-0.62 0-1.21 0-1.83v-62.94h22.69v42.25h0z" />
		<path id="Layer" class="s1" d="m238.86 128.81c0 0.62 0 1.24 0 1.84c0 20.68 4.37 24.48 21.02 24.48h1.67v7.85v1.54h-20.92c-0.75-0.04-1.48-0.16-2.23-0.23c-12.69-1.23-23.44-7.91-25.98-20.3c-1.15-5.59-1.55-12.04-1.55-18.15v-13.75v-58.25v-1.01v-19.91c0-3.87 3.17-7.02 7.04-7.02h13.88c3.89 0 7.06 3.16 7.06 7.02v19.91h15.64h7.05v11.22h-22.69v62.94c0 0.62 0 1.22 0 1.83z" />
		<path id="Layer" class="s2" d="m295.41 155.14v9.38h-18.81h-15.05v-1.54v-7.85v-42.81v-6.03v-42.25v-11.22v-35.41v-0.03h0.88h1.09c0 0 0 0.09 0 0.11c14.27 0.58 25.7 12.25 25.7 26.69v62.81v13.73c0 6.09 0 15.91 0 22.89c0 8.53 0.8 11.53 6.19 11.53z" />
	</g>
	<g id="Layer">
		<path id="Layer" class="s2" d="m110.66 208.13c0.91 1.94 1.36 4.16 1.36 6.6v26.82c0 1.7-1.38 3.09-3.08 3.09h-3.8c-1.69 0-3.09-1.39-3.09-3.09v-26.03c0-1.03-0.16-1.95-0.49-2.77c-0.26-0.66-0.68-1.19-1.27-1.65c-0.23-0.15-0.52-0.32-0.8-0.5c-0.14-0.08-0.29-0.14-0.42-0.18c-0.1-0.03-0.22-0.07-0.33-0.11c-0.6-0.24-1.22-0.39-1.81-0.45c-0.85-0.07-1.77-0.11-2.78-0.11h-11.95v31.89c0 1.7-1.39 3.08-3.09 3.08h-4.03c-1.7 0-3.08-1.38-3.08-3.08v-58.63c0-1.7 1.38-3.09 3.08-3.09h3.95c1.7 0 3.09 1.39 3.09 3.09v16.62h11.95c1.59 0 3.04 0.07 4.3 0.22c1.45 0.15 2.89 0.54 4.28 1.13c0.41 0.11 1.05 0.4 1.7 0.76c0.6 0.35 1.22 0.75 1.83 1.23c2 1.37 3.57 3.16 4.49 5.16z" />
		<path id="Layer" class="s2" d="m157.04 203.02v3.72c0 1.7-1.38 3.09-3.09 3.09h-13.06c-1.13 0-2.22 0.04-3.22 0.14c-0.76 0.07-1.51 0.26-2.22 0.57c-0.55 0.19-0.89 0.33-1.25 0.52c-0.34 0.19-0.7 0.41-1.05 0.63c-0.03 0.04-0.1 0.08-0.16 0.13h20.72c1.71 0 3.09 1.39 3.09 3.08v3.96c0 1.7-1.38 3.09-3.09 3.09h-26.42c0 0.1 0 0.2 0 0.31v0.4c0 3.63 1.22 6.52 3.72 8.86c2.54 2.36 6.18 3.56 10.84 3.56h11.94c0.84 0 1.62 0.32 2.2 0.93c0.57 0.59 0.9 1.4 0.89 2.23l-0.08 3.47c-0.04 1.67-1.43 3.01-3.09 3.01h-12.26c-7.61 0-13.64-2.16-17.88-6.4c-4.25-4.25-6.4-9.63-6.4-15.99c0-6.35 2.31-11.73 6.87-16.01c4.49-4.23 10.09-6.39 16.62-6.39h13.29c1.71 0 3.09 1.38 3.09 3.09z" />
		<path id="Layer" class="s2" d="m202.83 217.27c0.05 0.1 0.07 0.32 0.07 0.55c0 0.29-0.04 0.59-0.12 0.86v23.03c0 1.7-1.39 3.08-3.08 3.08h-3.72c-1.69 0-3.08-1.38-3.08-3.08v-23.03c0-2.57-0.9-4.69-2.76-6.47c-1.95-1.86-4.2-2.83-6.88-2.95c-0.04 0-0.07 0-0.11-0.01c-0.05 0.01-0.1 0.01-0.15 0.01c-2.84 0-5.21 1.03-7.27 3.18c-2.09 2.17-3.1 4.64-3.1 7.59v21.59c0 1.7-1.38 3.08-3.09 3.08h-3.72c-1.71 0-3.09-1.38-3.09-3.08v-22.87c0-5.61 2.2-10.34 6.54-14.04c4.13-3.54 8.91-5.34 14.19-5.34h0.87c4.11 0.32 7.86 1.95 11.23 4.86c3.29 2.84 5.53 6.01 6.66 9.45c0.22 0.73 0.38 1.41 0.48 2.09c0.07 0.5 0.11 1 0.13 1.5z" />
		<path id="Layer" class="s0" d="m231.02 203.18v3.88c0 1.7-1.38 3.09-3.08 3.09h-10.29v19.94c0.09 0.86 0.25 1.89 0.48 2.81c0.16 0.71 0.34 0.92 0.34 0.92c0.18 0.12 0.54 0.46 0.82 0.79c0.1 0.12 0.2 0.22 0.3 0.33c0.1 0.07 0.41 0.25 0.72 0.36c0.08 0.04 0.5 0.17 1.54 0.17h5.77c1.7 0 3.08 1.38 3.08 3.09v3.23c0 1.7-1.38 3.09-3.08 3.09h-6.66c-1.53-0.07-2.82-0.26-3.98-0.6c-1.17-0.33-2.32-0.89-3.41-1.66c-0.35-0.16-0.77-0.44-1.14-0.78c-0.14-0.11-0.28-0.24-0.44-0.35c-1.95-1.63-3.19-3.78-3.73-6.39c-0.44-2.13-0.66-4.37-0.66-6.67v-45.25c0-1.71 1.39-3.09 3.08-3.09h3.88c1.7 0 3.09 1.38 3.09 3.09v16.93h10.29c1.7 0 3.08 1.38 3.08 3.08z" />
		<path id="Layer" class="s2" d="m274.31 203.02v3.72c0 1.7-1.39 3.09-3.09 3.09h-13.06c-1.15 0-2.22 0.04-3.23 0.14c-0.76 0.07-1.51 0.26-2.22 0.57c-0.53 0.18-0.89 0.33-1.24 0.52c-0.35 0.19-0.71 0.41-1.06 0.63c-0.04 0.04-0.1 0.08-0.16 0.13h20.73c1.7 0 3.08 1.39 3.08 3.08v3.96c0 1.7-1.38 3.09-3.08 3.09h-26.43c0 0.1 0 0.2 0 0.31v0.4c0 3.61 1.22 6.52 3.74 8.86c2.57 2.4 6.1 3.56 10.83 3.56h11.95c0.81 0 1.62 0.33 2.19 0.93c0.58 0.58 0.9 1.4 0.88 2.23l-0.08 3.47c-0.05 1.68-1.39 3.01-3.08 3.01h-12.27c-7.62 0-13.64-2.16-17.89-6.4c-4.25-4.25-6.41-9.63-6.41-15.99c0-6.35 2.31-11.73 6.88-16.01c4.49-4.23 10.09-6.39 16.63-6.39h13.29c1.7 0 3.09 1.38 3.09 3.09z" />
		<path id="Layer" class="s2" d="m306.18 202.79v3.48c0 1.69-1.38 3.08-3.09 3.08h-4.74c-0.87 0-1.64 0.1-2.32 0.31c-0.52 0.15-0.99 0.43-1.42 0.83c-1 0.79-1.54 1.48-1.82 2.27c-0.35 0.94-0.53 2.05-0.53 3.32v25.55c0 0.84-0.34 1.63-0.93 2.21c-0.57 0.56-1.34 0.87-2.15 0.87l-3.54-0.07c-1.66-0.04-3.02-1.43-3.02-3.09v-27.37c0-2.18 0.46-4.18 1.36-5.97c0.81-1.62 1.78-3.04 2.88-4.22c1.33-1.39 3.01-2.47 5-3.21c1.9-0.72 3.98-1.06 6.18-1.06h5.06c1.71 0 3.09 1.38 3.09 3.08z" />
		<path id="Layer" class="s0" d="m323.36 180.94v62.99c0 0.44-0.35 0.78-0.79 0.78h-8.32c-0.42 0-0.78-0.34-0.78-0.78v-62.99c0-0.44 0.36-0.78 0.78-0.78h8.32c0.44 0 0.79 0.35 0.79 0.78z" />
		<path id="Layer" fill-rule="evenodd" class="s2" d="m369.99 206.25c4.38 4.47 6.62 9.88 6.62 16.08c0 6.25-2.27 11.68-6.73 16.11c-4.46 4.43-9.88 6.68-16.14 6.68h-0.21c-6.16 0-11.53-2.24-15.96-6.63c-4.49-4.46-6.76-9.9-6.76-16.16c0-6.31 2.31-11.81 6.89-16.32c4.45-4.39 9.79-6.62 15.86-6.62h0.48c6.19 0.05 11.55 2.36 15.96 6.86zm-29.23 15.99v0.23c0 3.62 1.29 6.68 3.92 9.35c2.59 2.61 5.56 3.88 9.08 3.88c3.74-0.09 6.67-1.38 9.2-4.07c2.5-2.64 3.68-5.7 3.59-9.31c-0.04-3.61-1.29-6.58-3.8-9.1c-2.52-2.5-5.47-3.76-9.04-3.8c-3.51 0-6.47 1.24-9.06 3.75c-2.47 2.41-3.76 5.19-3.95 8.52c0.03 0.17 0.06 0.38 0.06 0.55z" />
		<path id="Layer" class="s2" d="m421.6 217.82c0 0.29-0.05 0.6-0.12 0.86v23.03c0 1.7-1.39 3.08-3.09 3.08h-3.72c-1.7 0-3.09-1.38-3.09-3.08v-23.03c0-2.57-0.9-4.69-2.76-6.47c-1.94-1.86-4.19-2.83-6.88-2.95c-0.04 0-0.08 0-0.11-0.01c-0.05 0.01-0.09 0.01-0.15 0.01c-2.84 0-5.22 1.03-7.28 3.18c-2.08 2.16-3.08 4.64-3.08 7.59v21.59c0 1.7-1.4 3.08-3.09 3.08h-3.72c-1.7 0-3.08-1.38-3.08-3.08v-22.87c0-5.61 2.2-10.34 6.54-14.04c4.13-3.54 8.91-5.34 14.19-5.34h0.87c4.17 0.32 7.82 1.91 11.23 4.86c3.28 2.84 5.53 6.01 6.65 9.45c0.21 0.71 0.37 1.39 0.47 2.09c0.08 0.5 0.13 1 0.15 1.5c0.03 0.08 0.06 0.3 0.06 0.55z" />
		<path id="Layer" class="s0" d="m66.33 183.37v4.92c0 1.7-1.38 3.08-3.09 3.08h-33.68c-1.37 0.03-2.47 1.15-2.5 2.56l-0.79 0.25h0.78v36.71c0.03 1.55 1.17 2.73 2.62 2.73h33.57c1.7 0 3.09 1.39 3.09 3.08v4.93c0 1.7-1.38 3.08-3.09 3.08h-33.57c-7.39 0-13.54-6.02-13.7-13.4l-0.02-37.4c0-0.07 0.02-0.24 0.02-0.35c0.15-7.35 6.08-13.18 13.5-13.28h33.77c1.7 0 3.09 1.39 3.09 3.09z" />
	</g>
</svg>